<mxfile host="app.diagrams.net" modified="2023-09-21T07:04:20.246Z" agent="Mozilla/5.0 (Windows NT 10.0; Win64; x64) AppleWebKit/537.36 (KHTML, like Gecko) Chrome/116.0.0.0 Safari/537.36" etag="tlC4k82ZfG9xmE93M1bF" version="21.8.0" type="github">
  <diagram name="第 1 页" id="YBNPpQAlf0xOG2mMde7x">
    <mxGraphModel dx="1687" dy="929" grid="1" gridSize="10" guides="1" tooltips="1" connect="1" arrows="1" fold="1" page="1" pageScale="1" pageWidth="827" pageHeight="1169" math="0" shadow="0">
      <root>
        <mxCell id="0" />
        <mxCell id="1" parent="0" />
        <mxCell id="O7y51qf2qGIChFWwg5cM-3" value="" style="edgeStyle=orthogonalEdgeStyle;rounded=0;orthogonalLoop=1;jettySize=auto;html=1;" edge="1" parent="1" source="O7y51qf2qGIChFWwg5cM-1" target="O7y51qf2qGIChFWwg5cM-2">
          <mxGeometry relative="1" as="geometry" />
        </mxCell>
        <mxCell id="O7y51qf2qGIChFWwg5cM-1" value="" style="ellipse;whiteSpace=wrap;html=1;aspect=fixed;fillColor=#fff2cc;strokeColor=#d6b656;" vertex="1" parent="1">
          <mxGeometry x="370" y="70" width="40" height="40" as="geometry" />
        </mxCell>
        <mxCell id="O7y51qf2qGIChFWwg5cM-6" value="" style="edgeStyle=orthogonalEdgeStyle;rounded=0;orthogonalLoop=1;jettySize=auto;html=1;" edge="1" parent="1" source="O7y51qf2qGIChFWwg5cM-2" target="O7y51qf2qGIChFWwg5cM-5">
          <mxGeometry relative="1" as="geometry" />
        </mxCell>
        <mxCell id="O7y51qf2qGIChFWwg5cM-2" value="Define Recipe&lt;br style=&quot;font-size: 15px;&quot;&gt;property" style="rounded=1;whiteSpace=wrap;html=1;fontStyle=1;fontSize=15;" vertex="1" parent="1">
          <mxGeometry x="330" y="180" width="120" height="60" as="geometry" />
        </mxCell>
        <mxCell id="O7y51qf2qGIChFWwg5cM-8" value="" style="edgeStyle=orthogonalEdgeStyle;rounded=0;orthogonalLoop=1;jettySize=auto;html=1;" edge="1" parent="1" source="O7y51qf2qGIChFWwg5cM-5" target="O7y51qf2qGIChFWwg5cM-7">
          <mxGeometry relative="1" as="geometry" />
        </mxCell>
        <mxCell id="O7y51qf2qGIChFWwg5cM-5" value="Load a bare wafer" style="whiteSpace=wrap;html=1;rounded=1;fontStyle=1;fontSize=15;" vertex="1" parent="1">
          <mxGeometry x="330" y="320" width="120" height="60" as="geometry" />
        </mxCell>
        <mxCell id="O7y51qf2qGIChFWwg5cM-10" value="" style="edgeStyle=orthogonalEdgeStyle;rounded=0;orthogonalLoop=1;jettySize=auto;html=1;" edge="1" parent="1" source="O7y51qf2qGIChFWwg5cM-7" target="O7y51qf2qGIChFWwg5cM-9">
          <mxGeometry relative="1" as="geometry" />
        </mxCell>
        <mxCell id="O7y51qf2qGIChFWwg5cM-29" style="edgeStyle=orthogonalEdgeStyle;rounded=0;orthogonalLoop=1;jettySize=auto;html=1;" edge="1" parent="1" source="O7y51qf2qGIChFWwg5cM-7" target="O7y51qf2qGIChFWwg5cM-27">
          <mxGeometry relative="1" as="geometry" />
        </mxCell>
        <mxCell id="O7y51qf2qGIChFWwg5cM-7" value="Define inspection testinformation" style="whiteSpace=wrap;html=1;rounded=1;fontStyle=1;fontSize=15;" vertex="1" parent="1">
          <mxGeometry x="330" y="460" width="120" height="60" as="geometry" />
        </mxCell>
        <mxCell id="O7y51qf2qGIChFWwg5cM-12" value="" style="edgeStyle=orthogonalEdgeStyle;rounded=0;orthogonalLoop=1;jettySize=auto;html=1;entryX=0.5;entryY=0;entryDx=0;entryDy=0;" edge="1" parent="1" source="O7y51qf2qGIChFWwg5cM-9" target="O7y51qf2qGIChFWwg5cM-13">
          <mxGeometry relative="1" as="geometry" />
        </mxCell>
        <mxCell id="O7y51qf2qGIChFWwg5cM-30" style="edgeStyle=orthogonalEdgeStyle;rounded=0;orthogonalLoop=1;jettySize=auto;html=1;entryX=0;entryY=0.5;entryDx=0;entryDy=0;" edge="1" parent="1" source="O7y51qf2qGIChFWwg5cM-9" target="O7y51qf2qGIChFWwg5cM-26">
          <mxGeometry relative="1" as="geometry" />
        </mxCell>
        <mxCell id="O7y51qf2qGIChFWwg5cM-9" value="Train light" style="whiteSpace=wrap;html=1;rounded=1;fontStyle=1;fontSize=15;" vertex="1" parent="1">
          <mxGeometry x="330" y="600" width="120" height="60" as="geometry" />
        </mxCell>
        <mxCell id="O7y51qf2qGIChFWwg5cM-21" value="" style="edgeStyle=orthogonalEdgeStyle;rounded=0;orthogonalLoop=1;jettySize=auto;html=1;" edge="1" parent="1" source="O7y51qf2qGIChFWwg5cM-11" target="O7y51qf2qGIChFWwg5cM-15">
          <mxGeometry relative="1" as="geometry" />
        </mxCell>
        <mxCell id="O7y51qf2qGIChFWwg5cM-22" value="" style="edgeStyle=orthogonalEdgeStyle;rounded=0;orthogonalLoop=1;jettySize=auto;html=1;" edge="1" parent="1" source="O7y51qf2qGIChFWwg5cM-11" target="O7y51qf2qGIChFWwg5cM-17">
          <mxGeometry relative="1" as="geometry" />
        </mxCell>
        <mxCell id="O7y51qf2qGIChFWwg5cM-31" value="" style="edgeStyle=orthogonalEdgeStyle;rounded=0;orthogonalLoop=1;jettySize=auto;html=1;" edge="1" parent="1" source="O7y51qf2qGIChFWwg5cM-11" target="O7y51qf2qGIChFWwg5cM-28">
          <mxGeometry relative="1" as="geometry" />
        </mxCell>
        <mxCell id="O7y51qf2qGIChFWwg5cM-11" value="Sample plan" style="whiteSpace=wrap;html=1;rounded=1;fontStyle=1;fontSize=15;" vertex="1" parent="1">
          <mxGeometry x="330" y="840" width="120" height="60" as="geometry" />
        </mxCell>
        <mxCell id="O7y51qf2qGIChFWwg5cM-20" value="" style="edgeStyle=orthogonalEdgeStyle;rounded=0;orthogonalLoop=1;jettySize=auto;html=1;" edge="1" parent="1" source="O7y51qf2qGIChFWwg5cM-13" target="O7y51qf2qGIChFWwg5cM-11">
          <mxGeometry relative="1" as="geometry" />
        </mxCell>
        <mxCell id="O7y51qf2qGIChFWwg5cM-13" value="Sensitivity" style="whiteSpace=wrap;html=1;rounded=1;fontStyle=1;fontSize=15;" vertex="1" parent="1">
          <mxGeometry x="330" y="720" width="120" height="60" as="geometry" />
        </mxCell>
        <mxCell id="O7y51qf2qGIChFWwg5cM-25" style="edgeStyle=orthogonalEdgeStyle;rounded=0;orthogonalLoop=1;jettySize=auto;html=1;entryX=0;entryY=0.5;entryDx=0;entryDy=0;" edge="1" parent="1" source="O7y51qf2qGIChFWwg5cM-15" target="O7y51qf2qGIChFWwg5cM-23">
          <mxGeometry relative="1" as="geometry" />
        </mxCell>
        <mxCell id="O7y51qf2qGIChFWwg5cM-15" value="Run One Wafer" style="whiteSpace=wrap;html=1;rounded=1;fontStyle=1;fontSize=15;" vertex="1" parent="1">
          <mxGeometry x="330" y="980" width="120" height="60" as="geometry" />
        </mxCell>
        <mxCell id="O7y51qf2qGIChFWwg5cM-24" value="" style="edgeStyle=orthogonalEdgeStyle;rounded=0;orthogonalLoop=1;jettySize=auto;html=1;" edge="1" parent="1" source="O7y51qf2qGIChFWwg5cM-17" target="O7y51qf2qGIChFWwg5cM-23">
          <mxGeometry relative="1" as="geometry" />
        </mxCell>
        <mxCell id="O7y51qf2qGIChFWwg5cM-17" value="Job Queue Inspection" style="whiteSpace=wrap;html=1;rounded=1;fontStyle=1;fontSize=15;" vertex="1" parent="1">
          <mxGeometry x="560" y="840" width="170" height="60" as="geometry" />
        </mxCell>
        <mxCell id="O7y51qf2qGIChFWwg5cM-23" value="" style="ellipse;whiteSpace=wrap;html=1;fillColor=#f8cecc;strokeColor=#b85450;" vertex="1" parent="1">
          <mxGeometry x="615" y="980" width="60" height="60" as="geometry" />
        </mxCell>
        <mxCell id="O7y51qf2qGIChFWwg5cM-26" value="Focus wizard&lt;br style=&quot;font-size: 18px;&quot;&gt;Light box&lt;br style=&quot;font-size: 18px;&quot;&gt;Training" style="shape=dataStorage;whiteSpace=wrap;html=1;fixedSize=1;align=left;fontSize=18;spacingLeft=20;fillColor=#fff2cc;strokeColor=#d6b656;" vertex="1" parent="1">
          <mxGeometry x="540" y="582" width="230" height="96" as="geometry" />
        </mxCell>
        <mxCell id="O7y51qf2qGIChFWwg5cM-27" value="Test mode&lt;br&gt;Optics mode&lt;br&gt;AF mode" style="shape=dataStorage;whiteSpace=wrap;html=1;fixedSize=1;align=left;fontSize=18;spacingLeft=20;fillColor=#f5f5f5;strokeColor=#666666;fontColor=#333333;" vertex="1" parent="1">
          <mxGeometry x="530" y="442" width="230" height="96" as="geometry" />
        </mxCell>
        <mxCell id="O7y51qf2qGIChFWwg5cM-28" value="Define Wafer Edge" style="shape=dataStorage;whiteSpace=wrap;html=1;fixedSize=1;direction=west;fontSize=18;align=left;fillColor=#e1d5e7;strokeColor=#9673a6;spacingLeft=20;" vertex="1" parent="1">
          <mxGeometry x="90" y="830" width="200" height="80" as="geometry" />
        </mxCell>
      </root>
    </mxGraphModel>
  </diagram>
</mxfile>
